<svg id="uisvg" width="600px" height="600px" viewBox="0 120 400 400" fill="none" xmlns="http://www.w3.org/2000/svg">
      <g clip-path="url(#clip0)">
      <rect width="400" height="528" fill="white"></rect>
      <rect class="uicolor6 uicustomcolor2 uihuecolor2op" width="400" height="528" fill="#fdf3ed" opacity="1"></rect>
      <g filter="url(#filter0_d)">
      <g clip-path="url(#clip1)">
      <rect x="88" y="40" width="224" height="448" rx="19.1147" fill="white"></rect>
      <rect x="88" y="40" width="224" height="448" fill="white"></rect>
      <path class="uicolor6 uicustomcolor6 uihuecolor5op" d="M88 314.176C88 306.258 94.4184 299.84 102.336 299.84H297.664C305.582 299.84 312 306.258 312 314.176V488H88V314.176Z" fill="#fdf3ed" opacity="1"></path>
      <path d="M102.702 324.18C102.702 326.341 104.282 327.89 106.443 327.89C108.615 327.89 110.196 326.341 110.196 324.18C110.196 322.019 108.615 320.471 106.443 320.471C104.282 320.471 102.702 322.019 102.702 324.18ZM108.626 324.18C108.626 325.514 107.766 326.535 106.443 326.535C105.121 326.535 104.271 325.514 104.271 324.18C104.271 322.836 105.121 321.826 106.443 321.826C107.766 321.826 108.626 322.836 108.626 324.18ZM111.536 327.761H112.912V323.761H113.966V322.568H112.912V322.309C112.912 321.815 113.17 321.557 113.557 321.557C113.719 321.557 113.88 321.589 113.998 321.664L114.278 320.697C114.03 320.568 113.676 320.482 113.288 320.482C112.267 320.482 111.536 321.159 111.536 322.288V322.568H110.676V323.761H111.536V327.761ZM115.052 327.761H116.428V323.761H117.482V322.568H116.428V322.309C116.428 321.815 116.686 321.557 117.073 321.557C117.234 321.557 117.396 321.589 117.514 321.664L117.794 320.697C117.546 320.568 117.191 320.482 116.804 320.482C115.783 320.482 115.052 321.159 115.052 322.288V322.568H114.192V323.761H115.052V327.761ZM117.937 325.159C117.937 326.825 119.13 327.89 120.711 327.89C121.517 327.89 122.323 327.653 122.85 327.169L122.248 326.288C121.915 326.61 121.345 326.804 120.861 326.804C119.979 326.804 119.453 326.255 119.367 325.6H123.226V325.299C123.226 323.6 122.173 322.439 120.625 322.439C119.044 322.439 117.937 323.653 117.937 325.159ZM120.625 323.524C121.528 323.524 121.872 324.18 121.904 324.675H119.345C119.41 324.159 119.775 323.524 120.625 323.524ZM124.213 327.761H125.578V324.331C125.804 323.998 126.406 323.75 126.858 323.75C127.008 323.75 127.137 323.761 127.234 323.783V322.449C126.589 322.449 125.944 322.815 125.578 323.277V322.568H124.213V327.761ZM127.636 327.083C128.184 327.589 129.055 327.89 129.958 327.89C131.399 327.89 132.205 327.18 132.205 326.223C132.205 324.933 131.012 324.696 130.119 324.524C129.539 324.406 129.13 324.288 129.13 323.965C129.13 323.664 129.453 323.481 129.947 323.481C130.582 323.481 131.173 323.75 131.485 324.084L132.023 323.148C131.517 322.74 130.818 322.439 129.937 322.439C128.571 322.439 127.808 323.202 127.808 324.073C127.808 325.309 128.958 325.524 129.851 325.696C130.442 325.815 130.894 325.944 130.894 326.309C130.894 326.632 130.614 326.836 130.023 326.836C129.378 326.836 128.603 326.481 128.227 326.126L127.636 327.083ZM136.263 327.761H137.64V323.761H138.693V322.568H137.64V322.309C137.64 321.815 137.898 321.557 138.285 321.557C138.446 321.557 138.607 321.589 138.726 321.664L139.005 320.697C138.758 320.568 138.403 320.482 138.016 320.482C136.995 320.482 136.263 321.159 136.263 322.288V322.568H135.403V323.761H136.263V327.761ZM141.888 327.89C143.609 327.89 144.641 326.643 144.641 325.159C144.641 323.686 143.609 322.439 141.888 322.439C140.179 322.439 139.147 323.686 139.147 325.159C139.147 326.643 140.179 327.89 141.888 327.89ZM141.888 326.675C141.039 326.675 140.566 325.976 140.566 325.159C140.566 324.352 141.039 323.653 141.888 323.653C142.738 323.653 143.222 324.352 143.222 325.159C143.222 325.976 142.738 326.675 141.888 326.675ZM145.654 327.761H147.019V324.331C147.245 323.998 147.847 323.75 148.299 323.75C148.449 323.75 148.578 323.761 148.675 323.783V322.449C148.03 322.449 147.385 322.815 147.019 323.277V322.568H145.654V327.761ZM152.301 328.567L152.097 329.793C152.269 329.836 152.613 329.868 152.774 329.868C153.666 329.847 154.354 329.589 154.742 328.61L157.182 322.568H155.709L154.354 326.18L153 322.568H151.537L153.645 327.836L153.451 328.277C153.322 328.556 153.086 328.653 152.731 328.653C152.602 328.653 152.419 328.621 152.301 328.567ZM160.2 327.89C161.921 327.89 162.953 326.643 162.953 325.159C162.953 323.686 161.921 322.439 160.2 322.439C158.491 322.439 157.459 323.686 157.459 325.159C157.459 326.643 158.491 327.89 160.2 327.89ZM160.2 326.675C159.351 326.675 158.878 325.976 158.878 325.159C158.878 324.352 159.351 323.653 160.2 323.653C161.05 323.653 161.534 324.352 161.534 325.159C161.534 325.976 161.05 326.675 160.2 326.675ZM167.471 327.761H168.836V322.568H167.471V326.083C167.234 326.384 166.815 326.675 166.288 326.675C165.708 326.675 165.331 326.438 165.331 325.718V322.568H163.966V326.255C163.966 327.266 164.503 327.89 165.643 327.89C166.493 327.89 167.116 327.503 167.471 327.105V327.761Z" fill="black" fill-opacity="0.9"></path>
      <rect class="uicolor3 uicustomcolor5 uihuecolor6" x="102.336" y="342.25" width="52.5653" height="23.8933" rx="7.168" fill="#eca474" opacity="1"></rect>
      <rect class="uicolor3 uicustomcolor5 uihuecolor6" x="159.682" y="342.25" width="54.9547" height="23.8933" rx="7.168" fill="#eca474" opacity="1"></rect>
      <rect class="uicolor3 uicustomcolor5 uihuecolor6" x="219.414" y="342.25" width="78.848" height="23.8933" rx="7.168" fill="#eca474" opacity="1"></rect>
      <path d="M113.253 355.019C113.253 356.541 114.457 357.519 115.996 357.519C116.723 357.519 117.652 357.26 118.287 356.449L117.376 355.822C117.058 356.215 116.539 356.466 116.063 356.466C115.101 356.466 114.49 355.813 114.49 354.944C114.49 353.723 115.385 352.803 116.439 352.803C117.083 352.803 117.61 353.129 117.827 353.714L118.973 353.33C118.647 352.485 117.861 351.749 116.497 351.749C114.758 351.749 113.253 353.045 113.253 355.019ZM119.018 355.019C119.018 356.549 120.214 357.519 121.761 357.519C123.601 357.519 124.998 356.064 124.998 354.241C124.998 352.719 123.802 351.749 122.263 351.749C120.423 351.749 119.018 353.196 119.018 355.019ZM123.76 354.325C123.76 355.521 122.899 356.466 121.828 356.466C120.934 356.466 120.256 355.889 120.256 354.944C120.256 353.748 121.109 352.803 122.188 352.803C123.083 352.803 123.76 353.388 123.76 354.325ZM125.145 357.419H126.333L126.843 355.094H129.544L129.77 354.074H127.077L127.336 352.861H130.088L130.322 351.841H126.375L125.145 357.419ZM129.923 357.419H131.11L131.62 355.094H134.322L134.547 354.074H131.855L132.114 352.861H134.865L135.099 351.841H131.152L129.923 357.419ZM134.7 357.419H138.648L138.865 356.39H136.114L136.398 355.094H139.099L139.325 354.074H136.632L136.891 352.861H139.643L139.877 351.841H135.93L134.7 357.419ZM139.576 357.419H143.523L143.74 356.39H140.989L141.273 355.094H143.975L144.2 354.074H141.508L141.767 352.861H144.518L144.752 351.841H140.805L139.576 357.419Z" fill="white" fill-opacity="0.9"></path>
      <path d="M171.497 357.419H172.692L173.688 352.886H175.318L175.544 351.841H171.095L170.861 352.886H172.492L171.497 357.419ZM178.279 357.419H179.592L178.823 355.353C179.726 355.186 180.411 354.425 180.411 353.413C180.411 352.443 179.592 351.841 178.689 351.841H176.305L175.076 357.419H176.264L176.698 355.42H177.627L178.279 357.419ZM178.17 354.4H176.933L177.267 352.861H178.455C178.839 352.861 179.165 353.137 179.165 353.53C179.165 354.032 178.797 354.4 178.17 354.4ZM181.826 357.419H183.013L183.515 355.136L186.375 351.841H184.953L183.088 354.082L182.194 351.841H180.906L182.327 355.136L181.826 357.419ZM189.507 357.419H190.653L191.882 351.841H190.694L189.85 355.663L188.11 351.841H186.889L185.66 357.419H186.848L187.717 353.463L189.507 357.419ZM191.752 357.419H195.7L195.917 356.39H193.166L193.45 355.094H196.151L196.377 354.074H193.684L193.943 352.861H196.695L196.929 351.841H192.982L191.752 357.419ZM200.893 357.419H202.156L204.974 351.841H203.611L201.746 355.872L201.579 351.841H200.65L198.702 355.872L198.61 351.841H197.314L197.682 357.419H198.944L200.759 353.589L200.893 357.419Z" fill="white" fill-opacity="0.9"></path>
      <path d="M229.622 357.419H230.809L231.319 355.094H234.02L234.246 354.074H231.553L231.813 352.861H234.564L234.798 351.841H230.851L229.622 357.419ZM237.602 357.419H238.915L238.145 355.353C239.049 355.186 239.734 354.425 239.734 353.413C239.734 352.443 238.915 351.841 238.012 351.841H235.628L234.399 357.419H235.587L236.021 355.42H236.95L237.602 357.419ZM237.493 354.4H236.256L236.59 352.861H237.778C238.162 352.861 238.488 353.137 238.488 353.53C238.488 354.032 238.12 354.4 237.493 354.4ZM239.773 357.419H243.72L243.937 356.39H241.186L241.47 355.094H244.171L244.397 354.074H241.704L241.964 352.861H244.715L244.949 351.841H241.002L239.773 357.419ZM244.648 357.419H248.595L248.813 356.39H246.061L246.346 355.094H249.047L249.273 354.074H246.58L246.839 352.861H249.591L249.825 351.841H245.877L244.648 357.419ZM252.911 351.841H250.753L249.524 357.419H251.715C254.332 357.419 255.327 355.705 255.327 354.241C255.327 352.794 254.148 351.841 252.911 351.841ZM251.932 356.374H250.945L251.715 352.886H252.685C253.513 352.886 254.09 353.505 254.09 354.316C254.09 355.429 253.279 356.374 251.932 356.374ZM255.526 357.419H259.473L259.691 356.39H256.939L257.224 355.094H259.925L260.151 354.074H257.458L257.717 352.861H260.469L260.703 351.841H256.755L255.526 357.419ZM260.402 357.419H263.947L264.173 356.374H261.823L262.818 351.841H261.631L260.402 357.419ZM264.779 357.419H265.967L267.196 351.841H266.008L264.779 357.419ZM268.629 357.419H270.126L273.505 351.841H272.091L269.608 356.131L269.006 351.841H267.709L268.629 357.419ZM272.791 357.419H276.738L276.955 356.39H274.204L274.488 355.094H277.189L277.415 354.074H274.722L274.982 352.861H277.733L277.967 351.841H274.02L272.791 357.419ZM280.869 357.419H282.182L281.412 355.353C282.316 355.186 283.001 354.425 283.001 353.413C283.001 352.443 282.182 351.841 281.279 351.841H278.895L277.666 357.419H278.854L279.288 355.42H280.217L280.869 357.419ZM280.76 354.4H279.523L279.857 352.861H281.045C281.429 352.861 281.755 353.137 281.755 353.53C281.755 354.032 281.387 354.4 280.76 354.4ZM284.415 357.419H285.603L286.105 355.136L288.965 351.841H287.543L285.678 354.082L284.783 351.841H283.496L284.917 355.136L284.415 357.419Z" fill="white" fill-opacity="0.9"></path>
      <path d="M103.574 87.0605H105.246V82.1098H110.949V80.638H105.246V77.3766H111.067V75.9047H103.574V87.0605ZM113.57 77.6275C114.105 77.6275 114.54 77.2093 114.54 76.6741C114.54 76.1389 114.105 75.704 113.57 75.704C113.051 75.704 112.6 76.1389 112.6 76.6741C112.6 77.2093 113.051 77.6275 113.57 77.6275ZM112.834 87.0605H114.339V78.9822H112.834V87.0605ZM122.19 87.0605H123.695V81.3907C123.695 79.6847 122.809 78.7815 121.103 78.7815C119.848 78.7815 118.778 79.4672 118.243 80.1195V78.9822H116.737V87.0605H118.243V81.2903C118.678 80.6882 119.531 80.1195 120.467 80.1195C121.504 80.1195 122.19 80.5544 122.19 81.8924V87.0605ZM131.834 87.0605H133.339V75.9047H131.834V80.153C131.181 79.2833 130.228 78.7815 129.191 78.7815C127.084 78.7815 125.578 80.4373 125.578 83.0297C125.578 85.6723 127.084 87.2613 129.191 87.2613C130.261 87.2613 131.232 86.7093 131.834 85.9065V87.0605ZM131.834 84.7525C131.416 85.4047 130.512 85.9232 129.592 85.9232C128.087 85.9232 127.151 84.7023 127.151 83.0297C127.151 81.3405 128.087 80.1195 129.592 80.1195C130.512 80.1195 131.416 80.6547 131.834 81.307V84.7525ZM142.286 87.2613C143.072 87.2613 143.54 87.0438 143.858 86.7428L143.473 85.6054C143.323 85.7727 143.005 85.9232 142.654 85.9232C142.135 85.9232 141.868 85.5051 141.868 84.9364V80.3035H143.507V78.9822H141.868V76.7745H140.363V78.9822H139.025V80.3035H140.363V85.2709C140.363 86.5421 141.015 87.2613 142.286 87.2613ZM150.626 87.0605H152.132V81.3572C152.132 79.6512 151.262 78.7815 149.539 78.7815C148.301 78.7815 147.214 79.4672 146.679 80.1195V75.9047H145.174V87.0605H146.679V81.2903C147.114 80.6882 147.967 80.1195 148.904 80.1195C149.941 80.1195 150.626 80.5209 150.626 81.859V87.0605ZM154.031 83.013C154.031 85.5553 155.804 87.2613 158.212 87.2613C159.517 87.2613 160.654 86.8431 161.457 86.057L160.755 85.0702C160.153 85.6891 159.216 86.0236 158.363 86.0236C156.741 86.0236 155.737 84.8863 155.62 83.5148H162.009V83.1468C162.009 80.6715 160.504 78.7815 158.079 78.7815C155.72 78.7815 154.031 80.6715 154.031 83.013ZM158.079 80.0192C159.785 80.0192 160.504 81.3572 160.537 82.4276H155.603C155.687 81.3238 156.456 80.0192 158.079 80.0192ZM175.212 87.0605H176.767L179.309 78.9822H177.737L175.897 85.1371L173.874 78.9822H172.569L170.545 85.1371L168.706 78.9822H167.133L169.676 87.0605H171.231L173.221 80.8554L175.212 87.0605ZM184.229 87.2613C186.755 87.2613 188.31 85.3546 188.31 83.013C188.31 80.6882 186.755 78.7815 184.229 78.7815C181.72 78.7815 180.148 80.6882 180.148 83.013C180.148 85.3546 181.72 87.2613 184.229 87.2613ZM184.229 85.9232C182.623 85.9232 181.72 84.5517 181.72 83.013C181.72 81.491 182.623 80.1195 184.229 80.1195C185.851 80.1195 186.738 81.491 186.738 83.013C186.738 84.5517 185.851 85.9232 184.229 85.9232ZM190.221 87.0605H191.726V81.4408C192.078 80.8387 193.098 80.2701 193.851 80.2701C194.051 80.2701 194.219 80.2868 194.369 80.3202V78.7982C193.299 78.7982 192.345 79.4171 191.726 80.2199V78.9822H190.221V87.0605ZM195.873 87.0605H197.378V75.9047H195.873V87.0605ZM205.53 87.0605H207.035V75.9047H205.53V80.153C204.877 79.2833 203.924 78.7815 202.887 78.7815C200.78 78.7815 199.274 80.4373 199.274 83.0297C199.274 85.6723 200.78 87.2613 202.887 87.2613C203.958 87.2613 204.928 86.7093 205.53 85.9065V87.0605ZM205.53 84.7525C205.112 85.4047 204.208 85.9232 203.288 85.9232C201.783 85.9232 200.847 84.7023 200.847 83.0297C200.847 81.3405 201.783 80.1195 203.288 80.1195C204.208 80.1195 205.112 80.6547 205.53 81.307V84.7525ZM209.897 79.8185C210.75 79.2331 211.369 78.2296 211.369 77.1257C211.369 76.2393 210.817 75.7375 210.198 75.7375C209.629 75.7375 209.178 76.2058 209.178 76.7745C209.178 77.3264 209.563 77.7278 210.081 77.7278C210.165 77.7278 210.299 77.6944 210.332 77.6776C210.248 78.2296 209.73 78.9153 209.195 79.2498L209.897 79.8185ZM212.206 86.0069C213.025 86.8431 214.213 87.2613 215.568 87.2613C217.692 87.2613 218.829 86.1741 218.829 84.7859C218.829 82.9294 217.156 82.5447 215.751 82.2269C214.748 81.9928 213.878 81.7586 213.878 81.0562C213.878 80.4039 214.514 80.0025 215.534 80.0025C216.554 80.0025 217.457 80.4206 217.926 80.9892L218.595 79.9356C217.909 79.2833 216.906 78.7815 215.517 78.7815C213.544 78.7815 212.44 79.8854 212.44 81.1732C212.44 82.9127 214.046 83.2806 215.417 83.5984C216.454 83.8326 217.374 84.1002 217.374 84.903C217.374 85.5887 216.772 86.057 215.634 86.057C214.547 86.057 213.477 85.5051 212.925 84.903L212.206 86.0069ZM234.862 87.0605H236.367V81.2234C236.367 79.601 235.564 78.7815 234.076 78.7815C232.888 78.7815 231.818 79.5341 231.349 80.2868C231.098 79.4171 230.379 78.7815 229.158 78.7815C227.954 78.7815 226.884 79.6178 226.549 80.1195V78.9822H225.044V87.0605H226.549V81.2903C226.951 80.7049 227.737 80.1195 228.523 80.1195C229.543 80.1195 229.944 80.7384 229.944 81.675V87.0605H231.45V81.2736C231.834 80.6882 232.637 80.1195 233.457 80.1195C234.443 80.1195 234.862 80.7384 234.862 81.675V87.0605ZM242.343 87.2613C244.869 87.2613 246.424 85.3546 246.424 83.013C246.424 80.6882 244.869 78.7815 242.343 78.7815C239.834 78.7815 238.262 80.6882 238.262 83.013C238.262 85.3546 239.834 87.2613 242.343 87.2613ZM242.343 85.9232C240.737 85.9232 239.834 84.5517 239.834 83.013C239.834 81.491 240.737 80.1195 242.343 80.1195C243.965 80.1195 244.852 81.491 244.852 83.013C244.852 84.5517 243.965 85.9232 242.343 85.9232ZM247.633 86.0069C248.452 86.8431 249.64 87.2613 250.995 87.2613C253.119 87.2613 254.256 86.1741 254.256 84.7859C254.256 82.9294 252.583 82.5447 251.178 82.2269C250.175 81.9928 249.305 81.7586 249.305 81.0562C249.305 80.4039 249.941 80.0025 250.961 80.0025C251.981 80.0025 252.884 80.4206 253.353 80.9892L254.022 79.9356C253.336 79.2833 252.333 78.7815 250.944 78.7815C248.971 78.7815 247.867 79.8854 247.867 81.1732C247.867 82.9127 249.473 83.2806 250.844 83.5984C251.881 83.8326 252.801 84.1002 252.801 84.903C252.801 85.5887 252.199 86.057 251.061 86.057C249.974 86.057 248.904 85.5051 248.352 84.903L247.633 86.0069ZM258.383 87.2613C259.169 87.2613 259.638 87.0438 259.956 86.7428L259.571 85.6054C259.42 85.7727 259.103 85.9232 258.751 85.9232C258.233 85.9232 257.965 85.5051 257.965 84.9364V80.3035H259.604V78.9822H257.965V76.7745H256.46V78.9822H255.122V80.3035H256.46V85.2709C256.46 86.5421 257.112 87.2613 258.383 87.2613ZM111.05 108.061H114.177L109.963 96.9047H106.35L102.152 108.061H105.28L105.848 106.371H110.481L111.05 108.061ZM108.156 99.4135L109.729 103.946H106.601L108.156 99.4135ZM125.12 108.061H127.679V102.207C127.679 100.551 126.743 99.7815 125.254 99.7815C123.983 99.7815 122.929 100.517 122.461 101.22C122.126 100.267 121.324 99.7815 120.17 99.7815C118.898 99.7815 117.861 100.501 117.51 100.969V99.9822H114.935V108.061H117.51V102.842C117.778 102.508 118.263 102.056 118.949 102.056C119.735 102.056 120.019 102.524 120.019 103.143V108.061H122.595V102.842C122.846 102.508 123.347 102.056 124.05 102.056C124.819 102.056 125.12 102.524 125.12 103.143V108.061ZM134.336 108.061H136.912V103.009C136.912 100.501 135.089 99.7815 133.148 99.7815C131.911 99.7815 130.523 100.149 129.486 101.036L130.405 102.658C131.058 102.106 131.894 101.805 132.697 101.805C133.734 101.805 134.336 102.274 134.336 102.976V103.996C133.851 103.394 132.898 103.06 131.827 103.06C130.589 103.06 129.051 103.645 129.051 105.602C129.051 107.425 130.589 108.261 131.827 108.261C132.864 108.261 133.834 107.86 134.336 107.258V108.061ZM134.336 105.987C134.068 106.371 133.466 106.572 132.898 106.572C132.212 106.572 131.61 106.271 131.61 105.635C131.61 105 132.212 104.699 132.898 104.699C133.466 104.699 134.068 104.899 134.336 105.267V105.987ZM138.48 108.061H145.287V105.836H141.909L145.22 101.805V99.9822H138.48V102.223H141.725L138.48 106.171V108.061ZM148.154 98.962C148.974 98.962 149.626 98.3097 149.626 97.4901C149.626 96.6706 148.974 96.0183 148.154 96.0183C147.335 96.0183 146.682 96.6706 146.682 97.4901C146.682 98.3097 147.335 98.962 148.154 98.962ZM146.866 108.061H149.442V99.9822H146.866V108.061ZM156.778 108.061H159.354V102.34C159.354 100.852 158.518 99.7815 156.678 99.7815C155.323 99.7815 154.37 100.4 153.885 100.969V99.9822H151.309V108.061H153.885V102.842C154.186 102.474 154.687 102.056 155.457 102.056C156.26 102.056 156.778 102.407 156.778 103.394V108.061ZM161.006 110.134C162.043 110.987 163.197 111.339 164.585 111.339C166.592 111.339 169.201 110.636 169.201 107.341V99.9822H166.642V100.936C165.99 100.133 165.154 99.7815 164.251 99.7815C162.227 99.7815 160.688 101.186 160.688 103.846C160.688 106.572 162.277 107.927 164.251 107.927C165.17 107.927 165.973 107.542 166.642 106.756V107.375C166.642 108.88 165.438 109.231 164.585 109.231C163.648 109.231 162.745 108.964 162.126 108.295L161.006 110.134ZM166.642 104.933C166.324 105.368 165.639 105.652 165.104 105.652C164.083 105.652 163.331 105.033 163.331 103.846C163.331 102.675 164.083 102.056 165.104 102.056C165.639 102.056 166.324 102.34 166.642 102.775V104.933ZM180.82 108.261C183.597 108.261 185.052 106.706 185.771 105.267L183.296 104.097C182.928 104.983 181.974 105.719 180.82 105.719C179.081 105.719 177.793 104.314 177.793 102.491C177.793 100.668 179.081 99.263 180.82 99.263C181.974 99.263 182.928 99.9989 183.296 100.885L185.771 99.7146C185.035 98.2428 183.597 96.7208 180.82 96.7208C177.475 96.7208 174.866 99.0456 174.866 102.491C174.866 105.92 177.475 108.261 180.82 108.261ZM190.812 108.261C193.588 108.261 195.227 106.288 195.227 104.013C195.227 101.738 193.588 99.7815 190.812 99.7815C188.069 99.7815 186.413 101.738 186.413 104.013C186.413 106.288 188.069 108.261 190.812 108.261ZM190.812 105.987C189.691 105.987 189.072 105.1 189.072 104.013C189.072 102.943 189.691 102.056 190.812 102.056C191.949 102.056 192.585 102.943 192.585 104.013C192.585 105.1 191.949 105.987 190.812 105.987ZM197.137 108.061H199.713V102.223H201.352V99.9822H199.713V99.6477C199.713 99.0289 200.064 98.6944 200.599 98.6944C200.833 98.6944 201.067 98.7445 201.268 98.8616L201.736 97.1055C201.335 96.888 200.733 96.7375 200.03 96.7375C198.358 96.7375 197.137 97.8581 197.137 99.5808V99.9822H195.799V102.223H197.137V108.061ZM202.974 108.061H205.55V102.223H207.189V99.9822H205.55V99.6477C205.55 99.0289 205.901 98.6944 206.436 98.6944C206.67 98.6944 206.904 98.7445 207.105 98.8616L207.573 97.1055C207.172 96.888 206.57 96.7375 205.867 96.7375C204.195 96.7375 202.974 97.8581 202.974 99.5808V99.9822H201.636V102.223H202.974V108.061ZM207.728 104.013C207.728 106.639 209.651 108.261 212.144 108.261C213.381 108.261 214.719 107.91 215.522 107.191L214.435 105.585C213.983 105.987 213.18 106.271 212.461 106.271C211.257 106.271 210.555 105.585 210.404 104.833H216.158V104.281C216.158 101.538 214.418 99.7815 212.026 99.7815C209.501 99.7815 207.728 101.671 207.728 104.013ZM212.026 101.772C213.214 101.772 213.632 102.591 213.699 103.16H210.371C210.471 102.575 210.906 101.772 212.026 101.772ZM216.891 104.013C216.891 106.639 218.814 108.261 221.307 108.261C222.544 108.261 223.882 107.91 224.685 107.191L223.598 105.585C223.146 105.987 222.343 106.271 221.624 106.271C220.42 106.271 219.718 105.585 219.567 104.833H225.321V104.281C225.321 101.538 223.581 99.7815 221.189 99.7815C218.664 99.7815 216.891 101.671 216.891 104.013ZM221.189 101.772C222.377 101.772 222.795 102.591 222.862 103.16H219.534C219.634 102.575 220.069 101.772 221.189 101.772Z" fill="black" fill-opacity="0.9"></path>
      <path d="M104.701 197.541H106.238V191.715H108.324V190.371H102.605V191.715H104.701V197.541ZM111.548 197.541H112.913V194.187C112.913 192.693 111.827 192.22 110.645 192.22C109.828 192.22 109.011 192.478 108.376 193.037L108.892 193.951C109.333 193.542 109.849 193.338 110.408 193.338C111.096 193.338 111.548 193.682 111.548 194.209V194.929C111.204 194.51 110.591 194.295 109.903 194.295C109.075 194.295 108.097 194.735 108.097 195.95C108.097 197.111 109.075 197.67 109.903 197.67C110.58 197.67 111.193 197.423 111.548 197.004V197.541ZM111.548 196.294C111.322 196.595 110.892 196.746 110.451 196.746C109.914 196.746 109.473 196.466 109.473 195.982C109.473 195.488 109.914 195.198 110.451 195.198C110.892 195.198 111.322 195.348 111.548 195.649V196.294ZM113.816 196.864C114.364 197.369 115.235 197.67 116.138 197.67C117.578 197.67 118.384 196.961 118.384 196.004C118.384 194.714 117.191 194.477 116.299 194.305C115.718 194.187 115.31 194.069 115.31 193.746C115.31 193.445 115.632 193.263 116.127 193.263C116.761 193.263 117.352 193.531 117.664 193.865L118.202 192.929C117.696 192.521 116.998 192.22 116.116 192.22C114.751 192.22 113.988 192.983 113.988 193.854C113.988 195.09 115.138 195.305 116.03 195.477C116.621 195.595 117.073 195.724 117.073 196.09C117.073 196.412 116.793 196.617 116.202 196.617C115.557 196.617 114.783 196.262 114.407 195.907L113.816 196.864ZM121.132 197.67C121.701 197.67 122.067 197.52 122.271 197.337L121.981 196.305C121.906 196.38 121.712 196.455 121.508 196.455C121.207 196.455 121.035 196.208 121.035 195.886V193.542H122.088V192.349H121.035V190.93H119.659V192.349H118.799V193.542H119.659V196.251C119.659 197.176 120.175 197.67 121.132 197.67ZM122.689 194.94C122.689 196.606 123.882 197.67 125.463 197.67C126.269 197.67 127.075 197.434 127.602 196.95L127 196.068C126.667 196.391 126.097 196.584 125.613 196.584C124.732 196.584 124.205 196.036 124.119 195.38H127.978V195.079C127.978 193.381 126.925 192.22 125.377 192.22C123.796 192.22 122.689 193.435 122.689 194.94ZM125.377 193.306C126.28 193.306 126.624 193.961 126.656 194.456H124.097C124.162 193.94 124.527 193.306 125.377 193.306ZM129.265 197.541H130.641V193.542H131.695V192.349H130.641V192.091C130.641 191.596 130.899 191.338 131.286 191.338C131.448 191.338 131.609 191.371 131.727 191.446L132.007 190.478C131.759 190.349 131.405 190.263 131.018 190.263C129.996 190.263 129.265 190.941 129.265 192.069V192.349H128.405V193.542H129.265V197.541ZM135.986 197.541H137.351V192.349H135.986V195.864C135.749 196.165 135.33 196.455 134.803 196.455C134.223 196.455 133.846 196.219 133.846 195.499V192.349H132.481V196.036C132.481 197.047 133.019 197.67 134.158 197.67C135.007 197.67 135.631 197.283 135.986 196.885V197.541ZM138.707 197.541H140.072V190.371H138.707V197.541ZM144.477 197.541H145.853V193.542H146.907V192.349H145.853V192.069C145.853 191.596 146.111 191.338 146.498 191.338C146.681 191.338 146.831 191.392 146.939 191.467L147.218 190.478C146.971 190.349 146.616 190.263 146.229 190.263C145.208 190.263 144.477 190.941 144.477 192.069V192.349H143.617V193.542H144.477V197.541ZM147.691 197.541H149.057V190.371H147.691V197.541ZM153.529 197.541H154.895V194.187C154.895 192.693 153.809 192.22 152.626 192.22C151.809 192.22 150.992 192.478 150.358 193.037L150.874 193.951C151.315 193.542 151.831 193.338 152.39 193.338C153.078 193.338 153.529 193.682 153.529 194.209V194.929C153.185 194.51 152.573 194.295 151.885 194.295C151.057 194.295 150.079 194.735 150.079 195.95C150.079 197.111 151.057 197.67 151.885 197.67C152.562 197.67 153.175 197.423 153.529 197.004V197.541ZM153.529 196.294C153.304 196.595 152.874 196.746 152.433 196.746C151.895 196.746 151.455 196.466 151.455 195.982C151.455 195.488 151.895 195.198 152.433 195.198C152.874 195.198 153.304 195.348 153.529 195.649V196.294ZM157.593 197.541H159.065L161.151 192.349H159.678L158.324 195.961L156.969 192.349H155.507L157.593 197.541ZM164.168 197.67C165.888 197.67 166.92 196.423 166.92 194.94C166.92 193.467 165.888 192.22 164.168 192.22C162.459 192.22 161.427 193.467 161.427 194.94C161.427 196.423 162.459 197.67 164.168 197.67ZM164.168 196.455C163.319 196.455 162.846 195.757 162.846 194.94C162.846 194.133 163.319 193.435 164.168 193.435C165.018 193.435 165.501 194.133 165.501 194.94C165.501 195.757 165.018 196.455 164.168 196.455ZM171.438 197.541H172.803V192.349H171.438V195.864C171.201 196.165 170.782 196.455 170.255 196.455C169.675 196.455 169.298 196.219 169.298 195.499V192.349H167.933V196.036C167.933 197.047 168.471 197.67 169.61 197.67C170.459 197.67 171.083 197.283 171.438 196.885V197.541ZM174.158 197.541H175.524V194.112C175.749 193.779 176.351 193.531 176.803 193.531C176.953 193.531 177.082 193.542 177.179 193.564V192.231C176.534 192.231 175.889 192.596 175.524 193.058V192.349H174.158V197.541ZM177.581 196.864C178.129 197.369 179 197.67 179.903 197.67C181.343 197.67 182.149 196.961 182.149 196.004C182.149 194.714 180.956 194.477 180.064 194.305C179.483 194.187 179.075 194.069 179.075 193.746C179.075 193.445 179.397 193.263 179.892 193.263C180.526 193.263 181.117 193.531 181.429 193.865L181.967 192.929C181.461 192.521 180.763 192.22 179.881 192.22C178.516 192.22 177.753 192.983 177.753 193.854C177.753 195.09 178.903 195.305 179.795 195.477C180.386 195.595 180.838 195.724 180.838 196.09C180.838 196.412 180.558 196.617 179.967 196.617C179.322 196.617 178.548 196.262 178.172 195.907L177.581 196.864Z" fill="black" fill-opacity="0.9"></path>
      <circle class="uicolor4 uicustomcolor2 uihuecolor1op" cx="132.802" cy="236.134" r="20.3093" fill="#f1bf9d" opacity="1"></circle>
      <circle class="uicolor5 uicustomcolor4 uihuecolor2op" cx="200.3" cy="236.134" r="20.3093" fill="#f7d9c5" opacity="1"></circle>
      <circle class="uicolor6 uicustomcolor6 uihuecolor3op" cx="267.796" cy="236.134" r="20.3093" fill="#fdf3ed" opacity="1"></circle>
      <path class="uicolor1 uicustomcolor1 uihuecolor1" d="M122.496 272.61H126.548V271.415H123.853V266.235H122.496V272.61ZM130.176 272.61H131.39V269.628C131.39 268.3 130.424 267.879 129.373 267.879C128.647 267.879 127.92 268.108 127.357 268.605L127.815 269.418C128.207 269.055 128.666 268.873 129.163 268.873C129.775 268.873 130.176 269.179 130.176 269.647V270.287C129.87 269.915 129.325 269.724 128.714 269.724C127.978 269.724 127.108 270.115 127.108 271.195C127.108 272.228 127.978 272.725 128.714 272.725C129.316 272.725 129.861 272.505 130.176 272.132V272.61ZM130.176 271.501C129.975 271.769 129.593 271.903 129.201 271.903C128.723 271.903 128.331 271.654 128.331 271.224C128.331 270.784 128.723 270.526 129.201 270.526C129.593 270.526 129.975 270.66 130.176 270.928V271.501ZM134.142 272.725C134.648 272.725 134.973 272.591 135.155 272.428L134.897 271.511C134.83 271.578 134.658 271.645 134.476 271.645C134.209 271.645 134.056 271.425 134.056 271.138V269.055H134.993V267.994H134.056V266.732H132.833V267.994H132.068V269.055H132.833V271.463C132.833 272.285 133.291 272.725 134.142 272.725ZM137.371 272.725C137.878 272.725 138.203 272.591 138.384 272.428L138.126 271.511C138.059 271.578 137.887 271.645 137.706 271.645C137.438 271.645 137.285 271.425 137.285 271.138V269.055H138.222V267.994H137.285V266.732H136.062V267.994H135.297V269.055H136.062V271.463C136.062 272.285 136.521 272.725 137.371 272.725ZM138.756 270.297C138.756 271.778 139.817 272.725 141.222 272.725C141.939 272.725 142.655 272.514 143.124 272.084L142.589 271.301C142.292 271.587 141.786 271.759 141.356 271.759C140.572 271.759 140.104 271.272 140.027 270.689H143.458V270.421C143.458 268.911 142.522 267.879 141.145 267.879C139.74 267.879 138.756 268.959 138.756 270.297ZM141.145 268.844C141.948 268.844 142.254 269.427 142.283 269.867H140.008C140.065 269.408 140.39 268.844 141.145 268.844Z" fill="#e1732a" opacity="1"></path>
      <path class="uicolor2 uicustomcolor3 uihuecolor2" d="M180.811 272.61H185.322V271.434H182.169V269.953H185.256V268.787H182.169V267.401H185.322V266.235H180.811V272.61ZM185.953 272.008C186.441 272.457 187.215 272.725 188.018 272.725C189.298 272.725 190.015 272.094 190.015 271.243C190.015 270.096 188.954 269.886 188.161 269.733C187.645 269.628 187.282 269.523 187.282 269.236C187.282 268.969 187.569 268.806 188.008 268.806C188.572 268.806 189.098 269.045 189.375 269.341L189.853 268.51C189.404 268.147 188.782 267.879 187.999 267.879C186.785 267.879 186.106 268.558 186.106 269.332C186.106 270.431 187.129 270.622 187.922 270.775C188.448 270.88 188.849 270.995 188.849 271.32C188.849 271.606 188.601 271.788 188.075 271.788C187.502 271.788 186.813 271.473 186.479 271.157L185.953 272.008ZM192.123 274.368V272.017C192.496 272.495 193.002 272.725 193.547 272.725C194.732 272.725 195.592 271.836 195.592 270.297C195.592 268.758 194.732 267.879 193.547 267.879C192.983 267.879 192.477 268.127 192.123 268.577V267.994H190.909V274.368H192.123ZM194.331 270.297C194.331 271.1 193.863 271.645 193.165 271.645C192.773 271.645 192.324 271.406 192.123 271.119V269.485C192.324 269.188 192.773 268.959 193.165 268.959C193.863 268.959 194.331 269.504 194.331 270.297ZM196.5 272.61H197.714V269.561C197.915 269.265 198.45 269.045 198.851 269.045C198.985 269.045 199.1 269.055 199.186 269.074V267.889C198.612 267.889 198.039 268.213 197.714 268.624V267.994H196.5V272.61ZM199.648 270.297C199.648 271.778 200.709 272.725 202.114 272.725C202.83 272.725 203.547 272.514 204.015 272.084L203.48 271.301C203.184 271.587 202.677 271.759 202.247 271.759C201.464 271.759 200.995 271.272 200.919 270.689H204.35V270.421C204.35 268.911 203.413 267.879 202.037 267.879C200.632 267.879 199.648 268.959 199.648 270.297ZM202.037 268.844C202.84 268.844 203.146 269.427 203.174 269.867H200.9C200.957 269.408 201.282 268.844 202.037 268.844ZM204.825 272.008C205.313 272.457 206.087 272.725 206.89 272.725C208.17 272.725 208.887 272.094 208.887 271.243C208.887 270.096 207.826 269.886 207.033 269.733C206.517 269.628 206.154 269.523 206.154 269.236C206.154 268.969 206.441 268.806 206.88 268.806C207.444 268.806 207.97 269.045 208.247 269.341L208.725 268.51C208.276 268.147 207.654 267.879 206.871 267.879C205.657 267.879 204.978 268.558 204.978 269.332C204.978 270.431 206.001 270.622 206.794 270.775C207.32 270.88 207.721 270.995 207.721 271.32C207.721 271.606 207.473 271.788 206.947 271.788C206.374 271.788 205.685 271.473 205.351 271.157L204.825 272.008ZM209.38 272.008C209.867 272.457 210.642 272.725 211.444 272.725C212.725 272.725 213.442 272.094 213.442 271.243C213.442 270.096 212.381 269.886 211.588 269.733C211.072 269.628 210.708 269.523 210.708 269.236C210.708 268.969 210.995 268.806 211.435 268.806C211.999 268.806 212.524 269.045 212.802 269.341L213.279 268.51C212.83 268.147 212.209 267.879 211.425 267.879C210.211 267.879 209.533 268.558 209.533 269.332C209.533 270.431 210.556 270.622 211.349 270.775C211.874 270.88 212.276 270.995 212.276 271.32C212.276 271.606 212.027 271.788 211.502 271.788C210.928 271.788 210.24 271.473 209.906 271.157L209.38 272.008ZM216.477 272.725C218.006 272.725 218.924 271.616 218.924 270.297C218.924 268.988 218.006 267.879 216.477 267.879C214.957 267.879 214.04 268.988 214.04 270.297C214.04 271.616 214.957 272.725 216.477 272.725ZM216.477 271.645C215.722 271.645 215.301 271.023 215.301 270.297C215.301 269.58 215.722 268.959 216.477 268.959C217.232 268.959 217.662 269.58 217.662 270.297C217.662 271.023 217.232 271.645 216.477 271.645Z" fill="#e68a4c" opacity="1"></path>
      <path class="uicolor3 uicustomcolor5 uihuecolor3" d="M259.387 272.61H260.754V266.235H258.843L257.294 270.211L255.746 266.235H253.844V272.61H255.201V268.022L256.998 272.61H257.591L259.387 268.022V272.61ZM264.132 272.725C265.661 272.725 266.579 271.616 266.579 270.297C266.579 268.988 265.661 267.879 264.132 267.879C262.613 267.879 261.695 268.988 261.695 270.297C261.695 271.616 262.613 272.725 264.132 272.725ZM264.132 271.645C263.377 271.645 262.957 271.023 262.957 270.297C262.957 269.58 263.377 268.959 264.132 268.959C264.887 268.959 265.317 269.58 265.317 270.297C265.317 271.023 264.887 271.645 264.132 271.645ZM267.183 270.297C267.183 271.721 268.206 272.725 269.63 272.725C270.576 272.725 271.149 272.314 271.455 271.884L270.662 271.148C270.442 271.453 270.108 271.645 269.687 271.645C268.951 271.645 268.435 271.1 268.435 270.297C268.435 269.494 268.951 268.959 269.687 268.959C270.108 268.959 270.442 269.141 270.662 269.456L271.455 268.72C271.149 268.29 270.576 267.879 269.63 267.879C268.206 267.879 267.183 268.883 267.183 270.297ZM275.374 272.61H276.588V269.332C276.588 268.433 276.1 267.879 275.087 267.879C274.332 267.879 273.759 268.242 273.463 268.596V266.235H272.249V272.61H273.463V269.504C273.673 269.227 274.046 268.959 274.514 268.959C275.039 268.959 275.374 269.16 275.374 269.8V272.61ZM280.564 272.61H281.778V269.628C281.778 268.3 280.813 267.879 279.762 267.879C279.035 267.879 278.309 268.108 277.745 268.605L278.204 269.418C278.596 269.055 279.054 268.873 279.551 268.873C280.163 268.873 280.564 269.179 280.564 269.647V270.287C280.259 269.915 279.714 269.724 279.102 269.724C278.366 269.724 277.496 270.115 277.496 271.195C277.496 272.228 278.366 272.725 279.102 272.725C279.704 272.725 280.249 272.505 280.564 272.132V272.61ZM280.564 271.501C280.364 271.769 279.981 271.903 279.59 271.903C279.112 271.903 278.72 271.654 278.72 271.224C278.72 270.784 279.112 270.526 279.59 270.526C279.981 270.526 280.364 270.66 280.564 270.928V271.501Z" fill="#eca474" opacity="1"></path>
      <path class="uicolor1 uicustomcolor1 uihuecolor1" d="M135.079 229.221C135.08 228.48 134.807 227.738 134.26 227.174L132.278 225.133L130.296 227.174C129.749 227.739 129.476 228.48 129.477 229.221C128.648 229.277 127.956 229.854 127.707 230.637H136.849C136.6 229.854 135.907 229.277 135.079 229.221Z" fill="#e1732a" opacity="1"></path>
      <path class="uicolor1 uicustomcolor1 uihuecolor1" d="M135.823 227.017L137.333 225.14L138.36 226.017L136.551 228.267C136.53 228.254 136.508 228.243 136.487 228.231C136.458 228.216 136.43 228.201 136.401 228.186L136.37 228.171C136.34 228.156 136.309 228.141 136.279 228.128C136.179 227.736 136.026 227.363 135.823 227.017Z" fill="#e1732a" opacity="1"></path>
      <path class="uicolor1 uicustomcolor1 uihuecolor1" d="M126.877 232.011L127.158 235.219H137.398L137.679 232.011H126.877Z" fill="#e1732a" opacity="1"></path>
      <path class="uicolor1 uicustomcolor1 uihuecolor1" d="M127.279 236.594L128.332 247.135H136.224L137.277 236.594H127.279Z" fill="#e1732a" opacity="1"></path>
      <path class="uicolor1 uicustomcolor1 uihuecolor1" d="M138.785 234.678C138.855 234.673 138.924 234.67 138.995 234.67C140.712 234.67 142.109 236.109 142.109 237.878C142.109 239.646 140.712 241.086 138.995 241.086C138.732 241.086 138.476 241.051 138.232 240.988L138.355 239.587C138.553 239.667 138.769 239.711 138.995 239.711C139.976 239.711 140.774 238.888 140.774 237.878C140.774 236.867 139.976 236.044 138.995 236.044C138.881 236.044 138.77 236.056 138.662 236.077L138.785 234.678Z" fill="#e1732a" opacity="1"></path>
      <path class="uicolor3 uicustomcolor5 uihuecolor3" d="M269.089 227.557C272.274 227.557 274.856 227.204 274.856 226.768C274.856 226.332 272.274 225.979 269.089 225.979C265.904 225.979 263.321 226.332 263.321 226.768C263.321 227.204 265.904 227.557 269.089 227.557Z" fill="#eca474" opacity="1"></path>
      <path class="uicolor3 uicustomcolor5 uihuecolor3" d="M264.145 242.267C264.267 242.144 264.393 242.03 264.521 241.919C264.43 241.581 264.307 241.254 264.152 240.941L264.15 240.936C263.555 239.747 262.575 239.005 261.491 239.003C261.431 239.003 261.369 239.008 261.307 239.014C261.385 239.386 261.556 239.732 261.802 240.019C262.714 241.1 262.714 242.697 261.802 243.778C261.457 244.162 261.268 244.665 261.274 245.186C261.266 245.705 261.455 246.207 261.801 246.588C262.108 246.956 262.323 247.394 262.428 247.865C262.637 247.761 262.832 247.631 263.009 247.479C262.714 246.971 262.564 246.39 262.574 245.801C262.622 244.458 263.187 243.189 264.145 242.267Z" fill="#eca474" opacity="1"></path>
      <path class="uicolor3 uicustomcolor5 uihuecolor3" d="M263.382 227.66L263.637 229.887C263.858 230.183 265.641 230.714 269.089 230.714C272.537 230.714 274.319 230.183 274.54 229.888V229.885L274.796 227.66C273.281 228.284 270.231 228.346 269.089 228.346C267.947 228.346 264.897 228.284 263.382 227.66Z" fill="#eca474" opacity="1"></path>
      <path class="uicolor3 uicustomcolor5 uihuecolor3" d="M260.497 245.185C260.489 244.493 260.733 243.823 261.181 243.303C261.527 242.919 261.716 242.416 261.711 241.895C261.719 241.376 261.53 240.874 261.185 240.492C260.875 240.121 260.659 239.678 260.556 239.202C259.209 239.774 258.237 241.542 258.24 243.54C258.237 246.039 259.696 248.075 261.495 248.078C261.557 248.078 261.618 248.074 261.678 248.069C261.6 247.695 261.429 247.348 261.182 247.061C260.734 246.543 260.49 245.875 260.497 245.185Z" fill="#eca474" opacity="1"></path>
      <path class="uicolor3 uicustomcolor5 uihuecolor3" d="M265.722 245.847C266.025 245.547 266.204 245.141 266.222 244.711C266.318 243.478 267.281 242.499 268.492 242.402C268.778 242.383 269.055 242.297 269.304 242.152C269.284 242.13 269.269 242.104 269.249 242.083C268.813 241.661 268.229 241.435 267.628 241.455C266.512 241.507 265.46 241.999 264.693 242.826C263.884 243.603 263.402 244.669 263.346 245.801C263.342 246.111 263.394 246.42 263.499 246.711C263.837 246.507 264.216 246.384 264.608 246.35C265.029 246.333 265.428 246.153 265.722 245.847Z" fill="#eca474" opacity="1"></path>
      <path class="uicolor3 uicustomcolor5 uihuecolor3" d="M277.993 232.8C277.344 231.971 276.394 231.644 275.102 231.795L275.01 232.597C275.755 232.478 276.739 232.463 277.385 233.29C277.88 233.956 277.899 234.871 277.433 235.558C276.993 236.268 276.271 236.602 275.632 236.894L275.453 236.977C275.089 237.15 274.748 237.367 274.436 237.625L274.294 238.861C274.42 238.71 274.554 238.566 274.695 238.43C275.013 238.124 275.38 237.875 275.78 237.695L275.951 237.616C276.667 237.285 277.532 236.886 278.092 235.978C278.737 235.008 278.697 233.726 277.993 232.8Z" fill="#eca474" opacity="1"></path>
      <path class="uicolor3 uicustomcolor5 uihuecolor3" d="M273.812 243.054L273.735 243.725C273.735 243.733 273.729 243.74 273.728 243.748C273.678 244.28 273.069 244.685 271.852 244.982C271.812 244.996 271.769 245.003 271.727 245.003C271.513 245.003 271.34 244.828 271.339 244.61C271.339 244.426 271.462 244.266 271.638 244.222C272.612 243.988 272.93 243.726 272.967 243.651C272.967 243.645 272.965 243.639 272.967 243.633L273.682 237.383V237.374L274.432 230.838C272.984 231.442 270.156 231.503 269.089 231.503C268.022 231.503 265.194 231.442 263.746 230.838L264.87 240.643C264.993 240.897 265.098 241.159 265.184 241.428C266.794 240.416 268.684 240.402 269.795 241.524C270.359 242.114 270.663 242.912 270.639 243.735C270.625 244.538 270.407 245.324 270.007 246.017C270.667 246.013 271.324 245.942 271.969 245.804C273.386 245.524 274.222 245.041 274.454 244.368C274.55 244.107 274.527 243.815 274.392 243.572C274.256 243.342 274.054 243.161 273.812 243.054Z" fill="#eca474" opacity="1"></path>
      <path class="uicolor3 uicustomcolor5 uihuecolor3" d="M268.601 243.185C267.731 243.231 267.035 243.938 266.988 244.824C266.891 246.058 265.929 247.037 264.717 247.133C264.432 247.152 264.154 247.238 263.906 247.383C263.926 247.405 263.94 247.431 263.961 247.453C265.019 248.523 267.063 248.19 268.517 246.709C269.326 245.931 269.809 244.865 269.864 243.734C269.867 243.423 269.815 243.114 269.711 242.823C269.373 243.027 268.993 243.151 268.601 243.185Z" fill="#eca474" opacity="1"></path>
      <path class="uicolor2 uicustomcolor3 uihuecolor2" d="M197.131 227.672L196.581 228.497C196.778 228.628 196.891 228.839 196.891 229.076C196.891 229.313 196.778 229.524 196.581 229.655C196.11 229.969 195.829 230.494 195.829 231.059C195.829 231.625 196.11 232.15 196.581 232.464L197.131 231.639C196.934 231.507 196.821 231.296 196.821 231.059C196.821 230.823 196.934 230.612 197.131 230.48C197.602 230.167 197.882 229.642 197.882 229.076C197.882 228.511 197.602 227.986 197.131 227.672Z" fill="#e68a4c" opacity="1"></path>
      <path class="uicolor2 uicustomcolor3 uihuecolor2" fill-rule="evenodd" clip-rule="evenodd" d="M205.789 234.647V233.655H192.832V236.134C192.832 238.431 194.044 240.48 195.858 241.621H202.73C203.175 241.341 203.617 241.007 203.98 240.63H205.293C207.207 240.63 208.764 239.072 208.764 237.159V234.647H205.789ZM207.773 237.159C207.773 238.526 206.66 239.638 205.293 239.638H204.754C205.402 238.635 205.789 237.415 205.789 236.134V235.638H207.773V237.159Z" fill="#e68a4c" opacity="1"></path>
      <path class="uicolor2 uicustomcolor3 uihuecolor2" d="M199.06 228.497L199.61 227.672C200.081 227.986 200.362 228.511 200.362 229.076C200.362 229.642 200.081 230.167 199.61 230.48C199.413 230.612 199.3 230.823 199.3 231.059C199.3 231.296 199.413 231.507 199.61 231.639L199.06 232.464C198.589 232.15 198.309 231.625 198.309 231.059C198.309 230.494 198.589 229.969 199.06 229.655C199.257 229.524 199.37 229.313 199.37 229.076C199.37 228.839 199.257 228.628 199.06 228.497Z" fill="#e68a4c" opacity="1"></path>
      <path class="uicolor2 uicustomcolor3 uihuecolor2" d="M202.089 227.672L201.539 228.497C201.736 228.628 201.849 228.839 201.849 229.076C201.849 229.313 201.736 229.524 201.539 229.655C201.069 229.969 200.788 230.494 200.788 231.059C200.788 231.625 201.069 232.15 201.539 232.464L202.089 231.639C201.892 231.507 201.779 231.296 201.779 231.059C201.779 230.823 201.892 230.612 202.089 230.48C202.56 230.167 202.841 229.642 202.841 229.076C202.841 228.511 202.56 227.986 202.089 227.672Z" fill="#e68a4c" opacity="1"></path>
      <path class="uicolor2 uicustomcolor3 uihuecolor2" d="M193.823 244.596C192.728 244.596 191.84 243.708 191.84 242.613H206.781C206.781 243.708 205.893 244.596 204.798 244.596H193.823Z" fill="#e68a4c" opacity="1"></path>
      <path d="M138.302 151.259C139.554 151.259 140.328 150.657 140.835 149.912L140.022 149.482C139.688 150.017 139.057 150.409 138.302 150.409C137.012 150.409 136.018 149.386 136.018 147.962C136.018 146.528 137.012 145.515 138.302 145.515C139.057 145.515 139.688 145.907 140.022 146.442L140.835 146.012C140.338 145.267 139.554 144.665 138.302 144.665C136.486 144.665 135.033 146.003 135.033 147.962C135.033 149.921 136.486 151.259 138.302 151.259ZM144.617 151.145H145.477V148.029C145.477 146.853 144.626 146.414 143.623 146.414C142.877 146.414 142.246 146.662 141.73 147.169L142.103 147.761C142.514 147.35 142.963 147.15 143.489 147.15C144.148 147.15 144.617 147.494 144.617 148.067V148.832C144.263 148.421 143.728 148.22 143.107 148.22C142.332 148.22 141.501 148.679 141.501 149.73C141.501 150.743 142.342 151.259 143.107 151.259C143.728 151.259 144.253 151.039 144.617 150.638V151.145ZM144.617 150.131C144.359 150.476 143.909 150.657 143.432 150.657C142.81 150.657 142.371 150.284 142.371 149.74C142.371 149.195 142.81 148.822 143.432 148.822C143.909 148.822 144.359 149.004 144.617 149.348V150.131ZM147.065 151.145H147.926V147.283H148.862V146.528H147.926V146.223C147.926 145.668 148.184 145.381 148.614 145.381C148.767 145.381 148.91 145.42 149.025 145.487L149.225 144.846C149.025 144.732 148.767 144.674 148.47 144.674C147.648 144.674 147.065 145.229 147.065 146.223V146.528H146.301V147.283H147.065V151.145ZM149.396 148.832C149.396 150.284 150.41 151.259 151.786 151.259C152.531 151.259 153.181 151.02 153.64 150.571L153.239 150.007C152.894 150.361 152.359 150.552 151.872 150.552C150.945 150.552 150.371 149.902 150.304 149.118H153.955V148.908C153.955 147.494 153.095 146.414 151.709 146.414C150.362 146.414 149.396 147.494 149.396 148.832ZM151.709 147.121C152.684 147.121 153.095 147.885 153.114 148.497H150.295C150.343 147.866 150.782 147.121 151.709 147.121ZM154.63 150.542C155.098 151.02 155.777 151.259 156.551 151.259C157.765 151.259 158.415 150.638 158.415 149.845C158.415 148.784 157.459 148.564 156.656 148.382C156.083 148.249 155.586 148.115 155.586 147.713C155.586 147.341 155.949 147.111 156.532 147.111C157.115 147.111 157.631 147.35 157.898 147.675L158.281 147.073C157.889 146.7 157.315 146.414 156.522 146.414C155.394 146.414 154.764 147.044 154.764 147.78C154.764 148.774 155.681 148.985 156.465 149.166C157.057 149.3 157.583 149.453 157.583 149.912C157.583 150.303 157.239 150.571 156.589 150.571C155.968 150.571 155.356 150.256 155.041 149.912L154.63 150.542ZM164.814 151.145H165.674V148.029C165.674 146.853 164.824 146.414 163.82 146.414C163.075 146.414 162.444 146.662 161.928 147.169L162.3 147.761C162.711 147.35 163.161 147.15 163.686 147.15C164.346 147.15 164.814 147.494 164.814 148.067V148.832C164.46 148.421 163.925 148.22 163.304 148.22C162.53 148.22 161.698 148.679 161.698 149.73C161.698 150.743 162.539 151.259 163.304 151.259C163.925 151.259 164.451 151.039 164.814 150.638V151.145ZM164.814 150.131C164.556 150.476 164.107 150.657 163.629 150.657C163.008 150.657 162.568 150.284 162.568 149.74C162.568 149.195 163.008 148.822 163.629 148.822C164.107 148.822 164.556 149.004 164.814 149.348V150.131ZM167.053 151.145H167.913V147.933C168.113 147.589 168.696 147.264 169.126 147.264C169.241 147.264 169.337 147.274 169.423 147.293V146.423C168.811 146.423 168.266 146.777 167.913 147.236V146.528H167.053V151.145ZM172.327 151.259C173.77 151.259 174.659 150.17 174.659 148.832C174.659 147.503 173.77 146.414 172.327 146.414C170.894 146.414 169.995 147.503 169.995 148.832C169.995 150.17 170.894 151.259 172.327 151.259ZM172.327 150.495C171.41 150.495 170.894 149.711 170.894 148.832C170.894 147.962 171.41 147.178 172.327 147.178C173.254 147.178 173.761 147.962 173.761 148.832C173.761 149.711 173.254 150.495 172.327 150.495ZM178.867 151.145H179.727V146.528H178.867V149.845C178.609 150.189 178.121 150.495 177.586 150.495C176.994 150.495 176.611 150.265 176.611 149.501V146.528H175.751V149.787C175.751 150.762 176.239 151.259 177.223 151.259C177.93 151.259 178.513 150.896 178.867 150.514V151.145ZM184.206 151.145H185.066V147.905C185.066 146.93 184.559 146.414 183.584 146.414C182.868 146.414 182.256 146.806 181.95 147.178V146.528H181.09V151.145H181.95V147.847C182.199 147.503 182.686 147.178 183.221 147.178C183.814 147.178 184.206 147.427 184.206 148.191V151.145ZM189.716 151.145H190.576V144.77H189.716V147.197C189.344 146.7 188.799 146.414 188.206 146.414C187.002 146.414 186.142 147.36 186.142 148.841C186.142 150.351 187.002 151.259 188.206 151.259C188.818 151.259 189.372 150.944 189.716 150.485V151.145ZM189.716 149.826C189.477 150.198 188.961 150.495 188.436 150.495C187.575 150.495 187.04 149.797 187.04 148.841C187.04 147.876 187.575 147.178 188.436 147.178C188.961 147.178 189.477 147.484 189.716 147.857V149.826ZM194.322 152.177L194.189 152.951C194.322 152.989 194.58 153.018 194.724 153.018C195.393 153.008 195.899 152.75 196.196 152.024L198.47 146.528H197.543L196.1 150.151L194.657 146.528H193.739L195.641 151.192L195.374 151.804C195.23 152.148 195.02 152.253 194.705 152.253C194.59 152.253 194.427 152.225 194.322 152.177ZM201.214 151.259C202.657 151.259 203.546 150.17 203.546 148.832C203.546 147.503 202.657 146.414 201.214 146.414C199.78 146.414 198.882 147.503 198.882 148.832C198.882 150.17 199.78 151.259 201.214 151.259ZM201.214 150.495C200.296 150.495 199.78 149.711 199.78 148.832C199.78 147.962 200.296 147.178 201.214 147.178C202.141 147.178 202.647 147.962 202.647 148.832C202.647 149.711 202.141 150.495 201.214 150.495ZM207.754 151.145H208.614V146.528H207.754V149.845C207.496 150.189 207.008 150.495 206.473 150.495C205.88 150.495 205.498 150.265 205.498 149.501V146.528H204.638V149.787C204.638 150.762 205.125 151.259 206.11 151.259C206.817 151.259 207.4 150.896 207.754 150.514V151.145Z" fill="black" fill-opacity="0.3"></path>
      <rect x="102.635" y="130.495" width="194.731" height="32.8533" rx="6.86933" stroke="black" stroke-opacity="0.5" stroke-width="0.597333"></rect>
      <rect class="uicolor1 uicustomcolor1 uihuecolor1" x="263.018" y="133.781" width="31.0613" height="26.2827" rx="7.168" fill="#e1732a" opacity="1"></rect>
      <path d="M123.048 148.66C123.636 147.857 123.988 146.871 123.988 145.802C123.988 143.126 121.811 140.949 119.135 140.949C116.459 140.949 114.281 143.126 114.281 145.802C114.281 148.478 116.459 150.655 119.135 150.655C120.204 150.655 121.19 150.304 121.993 149.716L125.172 152.895L126.228 151.84C126.228 151.84 123.048 148.66 123.048 148.66V148.66ZM119.135 149.162C117.282 149.162 115.775 147.655 115.775 145.802C115.775 143.949 117.282 142.442 119.135 142.442C120.987 142.442 122.495 143.949 122.495 145.802C122.495 147.655 120.987 149.162 119.135 149.162Z" fill="#282C3F"></path>
      <path class="uicolor6stroke uicustomcolor2stroke uihuewhitestroke" d="M285.717 143.936H271.381" stroke="#fdf3ed" stroke-width="1.19467"></path>
      <path class="uicolor6stroke uicustomcolor2stroke uihuewhitestroke" d="M285.717 149.91H271.381" stroke="#fdf3ed" stroke-width="1.19467"></path>
      <circle class="uicolor1 uicustomcolor1 uihuecolor1 uicolor6stroke uicustomcolor2stroke uihuewhitestroke" cx="280.938" cy="143.936" r="1.792" fill="#e1732a" stroke="#fdf3ed" stroke-width="1.19467" opacity="1"></circle>
      <circle class="uicolor1 uicustomcolor1 uihuecolor1 uicolor6stroke uicustomcolor2stroke uihuewhitestroke" cx="276.159" cy="149.909" r="1.792" fill="#e1732a" stroke="#fdf3ed" stroke-width="1.19467" opacity="1"></circle>
      <g filter="url(#filter1_d)">
      <path d="M88 412.975C88 404.946 88 400.931 89.5625 397.865C90.937 395.167 93.1301 392.974 95.8276 391.6C98.8942 390.037 102.909 390.037 110.938 390.037H289.062C297.091 390.037 301.106 390.037 304.172 391.6C306.87 392.974 309.063 395.167 310.437 397.865C312 400.931 312 404.946 312 412.975V488H88V412.975Z" fill="white"></path>
      </g>
      <rect class="uicolor6 uicustomcolor2 uihuecolor4op" x="273.77" y="402.581" width="23.8933" height="23.8933" rx="11.9467" fill="#fdf3ed" opacity="1"></rect>
      <circle class="uicolor1 uicustomcolor1 uihuecolor4" cx="293.484" cy="405.568" r="3.28533" fill="#e1732a" stroke="white" stroke-width="0.597333" opacity="1"></circle>
      <path d="M106.465 414.502C108.099 414.502 109.002 413.631 109.518 412.739L108.207 412.104C107.905 412.696 107.26 413.147 106.465 413.147C105.217 413.147 104.271 412.147 104.271 410.793C104.271 409.438 105.217 408.438 106.465 408.438C107.26 408.438 107.905 408.9 108.207 409.481L109.518 408.836C109.013 407.943 108.099 407.083 106.465 407.083C104.368 407.083 102.702 408.588 102.702 410.793C102.702 412.997 104.368 414.502 106.465 414.502ZM112.803 414.502C114.524 414.502 115.556 413.255 115.556 411.771C115.556 410.298 114.524 409.051 112.803 409.051C111.094 409.051 110.062 410.298 110.062 411.771C110.062 413.255 111.094 414.502 112.803 414.502ZM112.803 413.287C111.954 413.287 111.481 412.588 111.481 411.771C111.481 410.965 111.954 410.266 112.803 410.266C113.653 410.266 114.137 410.965 114.137 411.771C114.137 412.588 113.653 413.287 112.803 413.287ZM123.009 414.373H124.386V410.621C124.386 409.556 123.816 409.051 122.859 409.051C122.063 409.051 121.375 409.524 121.074 409.997C120.88 409.406 120.397 409.051 119.633 409.051C118.837 409.051 118.149 409.545 117.934 409.857V409.18H116.569V414.373H117.934V410.879C118.139 410.588 118.536 410.266 119.01 410.266C119.569 410.266 119.784 410.61 119.784 411.094V414.373H121.16V410.868C121.353 410.588 121.751 410.266 122.235 410.266C122.794 410.266 123.009 410.61 123.009 411.094V414.373ZM127.09 416.351V413.706C127.51 414.244 128.08 414.502 128.692 414.502C130.026 414.502 130.993 413.502 130.993 411.771C130.993 410.04 130.026 409.051 128.692 409.051C128.058 409.051 127.488 409.33 127.09 409.836V409.18H125.725V416.351H127.09ZM129.574 411.771C129.574 412.674 129.047 413.287 128.262 413.287C127.821 413.287 127.316 413.018 127.09 412.696V410.857C127.316 410.524 127.821 410.266 128.262 410.266C129.047 410.266 129.574 410.879 129.574 411.771ZM132.014 414.373H133.38V407.201H132.014V414.373ZM134.401 411.771C134.401 413.438 135.594 414.502 137.175 414.502C137.981 414.502 138.787 414.266 139.314 413.782L138.712 412.9C138.379 413.223 137.809 413.416 137.325 413.416C136.443 413.416 135.917 412.868 135.831 412.212H139.69V411.911C139.69 410.212 138.637 409.051 137.089 409.051C135.508 409.051 134.401 410.266 134.401 411.771ZM137.089 410.137C137.992 410.137 138.336 410.793 138.368 411.287H135.809C135.874 410.771 136.239 410.137 137.089 410.137ZM142.419 414.502C142.988 414.502 143.354 414.352 143.558 414.169L143.268 413.137C143.193 413.212 142.999 413.287 142.795 413.287C142.494 413.287 142.322 413.04 142.322 412.717V410.373H143.376V409.18H142.322V407.761H140.946V409.18H140.085V410.373H140.946V413.083C140.946 414.007 141.462 414.502 142.419 414.502ZM143.977 411.771C143.977 413.438 145.17 414.502 146.751 414.502C147.557 414.502 148.363 414.266 148.89 413.782L148.288 412.9C147.955 413.223 147.385 413.416 146.901 413.416C146.019 413.416 145.493 412.868 145.407 412.212H149.266V411.911C149.266 410.212 148.213 409.051 146.665 409.051C145.084 409.051 143.977 410.266 143.977 411.771ZM146.665 410.137C147.568 410.137 147.912 410.793 147.944 411.287H145.385C145.45 410.771 145.815 410.137 146.665 410.137ZM154.369 416.351V413.706C154.789 414.244 155.359 414.502 155.971 414.502C157.305 414.502 158.272 413.502 158.272 411.771C158.272 410.04 157.305 409.051 155.971 409.051C155.337 409.051 154.767 409.33 154.369 409.836V409.18H153.004V416.351H154.369ZM156.853 411.771C156.853 412.674 156.326 413.287 155.541 413.287C155.1 413.287 154.595 413.018 154.369 412.696V410.857C154.595 410.524 155.1 410.266 155.541 410.266C156.326 410.266 156.853 410.879 156.853 411.771ZM159.293 414.373H160.659V410.943C160.885 410.61 161.487 410.363 161.938 410.363C162.089 410.363 162.218 410.373 162.315 410.395V409.062C161.67 409.062 161.024 409.427 160.659 409.889V409.18H159.293V414.373ZM165.576 414.502C167.297 414.502 168.329 413.255 168.329 411.771C168.329 410.298 167.297 409.051 165.576 409.051C163.867 409.051 162.835 410.298 162.835 411.771C162.835 413.255 163.867 414.502 165.576 414.502ZM165.576 413.287C164.727 413.287 164.254 412.588 164.254 411.771C164.254 410.965 164.727 410.266 165.576 410.266C166.426 410.266 166.91 410.965 166.91 411.771C166.91 412.588 166.426 413.287 165.576 413.287ZM173.535 408.416C173.987 408.416 174.352 408.051 174.352 407.599C174.352 407.148 173.987 406.782 173.535 406.782C173.094 406.782 172.718 407.148 172.718 407.599C172.718 408.051 173.094 408.416 173.535 408.416ZM169.643 414.373H171.019V410.373H172.073V409.18H171.019V408.9C171.019 408.427 171.277 408.169 171.664 408.169C171.847 408.169 171.998 408.223 172.105 408.298L172.385 407.309C172.137 407.18 171.783 407.094 171.395 407.094C170.374 407.094 169.643 407.771 169.643 408.9V409.18H168.783V410.373H169.643V414.373ZM172.858 414.373H174.223V409.18H172.858V414.373ZM175.579 414.373H176.944V407.201H175.579V414.373ZM177.965 411.771C177.965 413.438 179.158 414.502 180.739 414.502C181.545 414.502 182.352 414.266 182.879 413.782L182.277 412.9C181.943 413.223 181.373 413.416 180.89 413.416C180.008 413.416 179.481 412.868 179.395 412.212H183.255V411.911C183.255 410.212 182.201 409.051 180.653 409.051C179.072 409.051 177.965 410.266 177.965 411.771ZM180.653 410.137C181.556 410.137 181.9 410.793 181.932 411.287H179.374C179.438 410.771 179.804 410.137 180.653 410.137Z" fill="black" fill-opacity="0.9"></path>
      <path d="M102.762 425.716C102.762 427.447 104.042 428.61 105.631 428.61C106.542 428.61 107.303 428.225 107.822 427.648V425.633H105.213V426.251H107.128V427.389C106.852 427.665 106.3 427.991 105.631 427.991C104.41 427.991 103.482 427.038 103.482 425.716C103.482 424.387 104.41 423.45 105.631 423.45C106.3 423.45 106.894 423.768 107.245 424.219L107.797 423.876C107.303 423.266 106.618 422.831 105.631 422.831C104.042 422.831 102.762 423.985 102.762 425.716ZM108.691 426.477C108.691 427.74 109.552 428.601 110.748 428.601C111.409 428.601 111.952 428.384 112.353 427.982L112.052 427.573C111.735 427.899 111.266 428.083 110.806 428.083C109.937 428.083 109.401 427.447 109.351 426.686H112.621V426.527C112.621 425.315 111.902 424.361 110.681 424.361C109.527 424.361 108.691 425.306 108.691 426.477ZM110.673 424.88C111.592 424.88 111.994 425.624 112.002 426.226H109.351C109.385 425.607 109.811 424.88 110.673 424.88ZM114.657 428.601C115.025 428.601 115.251 428.493 115.41 428.342L115.226 427.874C115.142 427.966 114.975 428.041 114.799 428.041C114.523 428.041 114.39 427.824 114.39 427.523V425.014H115.209V424.462H114.39V423.358H113.762V424.462H113.093V425.014H113.762V427.656C113.762 428.258 114.063 428.601 114.657 428.601ZM118.251 428.501H118.878V425.641C119.062 425.315 119.589 424.997 119.974 424.997C120.074 424.997 120.149 425.005 120.225 425.022V424.378C119.673 424.378 119.204 424.688 118.878 425.114V424.462H118.251V428.501ZM120.777 426.477C120.777 427.74 121.639 428.601 122.835 428.601C123.495 428.601 124.039 428.384 124.44 427.982L124.139 427.573C123.821 427.899 123.353 428.083 122.893 428.083C122.023 428.083 121.488 427.447 121.438 426.686H124.708V426.527C124.708 425.315 123.989 424.361 122.768 424.361C121.614 424.361 120.777 425.306 120.777 426.477ZM122.759 424.88C123.679 424.88 124.081 425.624 124.089 426.226H121.438C121.471 425.607 121.898 424.88 122.759 424.88ZM125.489 426.477C125.489 427.681 126.301 428.601 127.505 428.601C128.241 428.601 128.676 428.3 128.985 427.899L128.567 427.514C128.299 427.874 127.956 428.041 127.538 428.041C126.677 428.041 126.142 427.372 126.142 426.477C126.142 425.582 126.677 424.922 127.538 424.922C127.956 424.922 128.299 425.081 128.567 425.449L128.985 425.064C128.676 424.663 128.241 424.361 127.505 424.361C126.301 424.361 125.489 425.281 125.489 426.477ZM131.629 428.601C132.858 428.601 133.627 427.648 133.627 426.477C133.627 425.306 132.858 424.361 131.629 424.361C130.399 424.361 129.63 425.306 129.63 426.477C129.63 427.648 130.399 428.601 131.629 428.601ZM131.629 428.041C130.767 428.041 130.282 427.305 130.282 426.477C130.282 425.658 130.767 424.922 131.629 424.922C132.49 424.922 132.967 425.658 132.967 426.477C132.967 427.305 132.49 428.041 131.629 428.041ZM139.525 428.501H140.152V425.582C140.152 424.771 139.759 424.361 139.023 424.361C138.438 424.361 137.895 424.746 137.669 425.114C137.552 424.696 137.2 424.361 136.582 424.361C135.988 424.361 135.444 424.788 135.277 425.047V424.462H134.65V428.501H135.277V425.549C135.494 425.223 135.929 424.922 136.339 424.922C136.866 424.922 137.083 425.248 137.083 425.758V428.501H137.711V425.541C137.92 425.223 138.363 424.922 138.781 424.922C139.299 424.922 139.525 425.248 139.525 425.758V428.501ZM146.279 428.501H146.906V425.582C146.906 424.771 146.513 424.361 145.777 424.361C145.192 424.361 144.648 424.746 144.423 425.114C144.305 424.696 143.954 424.361 143.335 424.361C142.742 424.361 142.198 424.788 142.031 425.047V424.462H141.404V428.501H142.031V425.549C142.248 425.223 142.683 424.922 143.093 424.922C143.62 424.922 143.837 425.248 143.837 425.758V428.501H144.464V425.541C144.673 425.223 145.117 424.922 145.535 424.922C146.053 424.922 146.279 425.248 146.279 425.758V428.501ZM147.923 426.477C147.923 427.74 148.785 428.601 149.981 428.601C150.641 428.601 151.185 428.384 151.586 427.982L151.285 427.573C150.967 427.899 150.499 428.083 150.039 428.083C149.169 428.083 148.634 427.447 148.584 426.686H151.854V426.527C151.854 425.315 151.135 424.361 149.914 424.361C148.76 424.361 147.923 425.306 147.923 426.477ZM149.905 424.88C150.825 424.88 151.227 425.624 151.235 426.226H148.584C148.617 425.607 149.044 424.88 149.905 424.88ZM155.596 428.501H156.223V425.666C156.223 424.788 155.78 424.361 154.935 424.361C154.333 424.361 153.781 424.713 153.497 425.047V424.462H152.87V428.501H153.497V425.549C153.731 425.223 154.199 424.922 154.693 424.922C155.236 424.922 155.596 425.148 155.596 425.858V428.501ZM160.403 428.501H161.03V422.923H160.403V425.072C160.076 424.629 159.583 424.361 159.039 424.361C157.977 424.361 157.241 425.198 157.241 426.486C157.241 427.799 157.986 428.601 159.039 428.601C159.608 428.601 160.102 428.309 160.403 427.899V428.501ZM160.403 427.405C160.177 427.757 159.692 428.041 159.19 428.041C158.379 428.041 157.894 427.38 157.894 426.486C157.894 425.591 158.379 424.922 159.19 424.922C159.692 424.922 160.177 425.223 160.403 425.574V427.405ZM164.811 428.501H165.439V425.725C165.439 424.746 164.728 424.361 163.875 424.361C163.214 424.361 162.696 424.579 162.261 425.03L162.553 425.465C162.913 425.081 163.306 424.905 163.791 424.905C164.376 424.905 164.811 425.214 164.811 425.758V426.486C164.485 426.109 164.025 425.934 163.473 425.934C162.788 425.934 162.06 426.36 162.06 427.263C162.06 428.141 162.788 428.601 163.473 428.601C164.017 428.601 164.477 428.409 164.811 428.041V428.501ZM164.811 427.648C164.569 427.982 164.142 428.15 163.699 428.15C163.114 428.15 162.704 427.782 162.704 427.272C162.704 426.753 163.114 426.385 163.699 426.385C164.142 426.385 164.569 426.552 164.811 426.887V427.648ZM167.716 428.601C168.084 428.601 168.31 428.493 168.469 428.342L168.285 427.874C168.201 427.966 168.034 428.041 167.858 428.041C167.582 428.041 167.448 427.824 167.448 427.523V425.014H168.268V424.462H167.448V423.358H166.821V424.462H166.152V425.014H166.821V427.656C166.821 428.258 167.122 428.601 167.716 428.601ZM169.463 423.784C169.698 423.784 169.89 423.592 169.89 423.358C169.89 423.124 169.698 422.94 169.463 422.94C169.238 422.94 169.045 423.124 169.045 423.358C169.045 423.592 169.238 423.784 169.463 423.784ZM169.154 428.501H169.781V424.462H169.154V428.501ZM172.797 428.601C174.026 428.601 174.796 427.648 174.796 426.477C174.796 425.306 174.026 424.361 172.797 424.361C171.568 424.361 170.798 425.306 170.798 426.477C170.798 427.648 171.568 428.601 172.797 428.601ZM172.797 428.041C171.935 428.041 171.45 427.305 171.45 426.477C171.45 425.658 171.935 424.922 172.797 424.922C173.658 424.922 174.135 425.658 174.135 426.477C174.135 427.305 173.658 428.041 172.797 428.041ZM178.544 428.501H179.171V425.666C179.171 424.788 178.728 424.361 177.884 424.361C177.281 424.361 176.73 424.713 176.445 425.047V424.462H175.818V428.501H176.445V425.549C176.679 425.223 177.148 424.922 177.641 424.922C178.185 424.922 178.544 425.148 178.544 425.858V428.501ZM180.073 427.966C180.483 428.401 181.043 428.601 181.703 428.601C182.749 428.601 183.292 428.058 183.292 427.38C183.292 426.486 182.481 426.285 181.779 426.126C181.252 426.001 180.792 425.875 180.792 425.482C180.792 425.122 181.135 424.872 181.687 424.872C182.205 424.872 182.648 425.089 182.891 425.382L183.184 424.947C182.858 424.621 182.372 424.361 181.687 424.361C180.725 424.361 180.181 424.897 180.181 425.524C180.181 426.36 180.959 426.544 181.645 426.703C182.189 426.837 182.682 426.979 182.682 427.422C182.682 427.815 182.347 428.091 181.729 428.091C181.177 428.091 180.667 427.824 180.399 427.514L180.073 427.966ZM186.467 428.501H187.095V427.899C187.396 428.309 187.889 428.601 188.458 428.601C189.511 428.601 190.256 427.799 190.256 426.486C190.256 425.198 189.511 424.361 188.458 424.361C187.906 424.361 187.421 424.629 187.095 425.072V422.923H186.467V428.501ZM187.095 427.405V425.574C187.312 425.223 187.805 424.922 188.299 424.922C189.118 424.922 189.603 425.591 189.603 426.486C189.603 427.38 189.118 428.041 188.299 428.041C187.805 428.041 187.312 427.757 187.095 427.405ZM193.803 428.501H194.43V425.725C194.43 424.746 193.719 424.361 192.866 424.361C192.206 424.361 191.687 424.579 191.252 425.03L191.545 425.465C191.905 425.081 192.298 424.905 192.783 424.905C193.368 424.905 193.803 425.214 193.803 425.758V426.486C193.477 426.109 193.017 425.934 192.465 425.934C191.779 425.934 191.052 426.36 191.052 427.263C191.052 428.141 191.779 428.601 192.465 428.601C193.009 428.601 193.469 428.409 193.803 428.041V428.501ZM193.803 427.648C193.56 427.982 193.134 428.15 192.691 428.15C192.105 428.15 191.696 427.782 191.696 427.272C191.696 426.753 192.105 426.385 192.691 426.385C193.134 426.385 193.56 426.552 193.803 426.887V427.648ZM195.336 427.966C195.746 428.401 196.306 428.601 196.967 428.601C198.012 428.601 198.556 428.058 198.556 427.38C198.556 426.486 197.745 426.285 197.042 426.126C196.515 426.001 196.055 425.875 196.055 425.482C196.055 425.122 196.398 424.872 196.95 424.872C197.469 424.872 197.912 425.089 198.154 425.382L198.447 424.947C198.121 424.621 197.636 424.361 196.95 424.361C195.989 424.361 195.445 424.897 195.445 425.524C195.445 426.36 196.223 426.544 196.908 426.703C197.452 426.837 197.945 426.979 197.945 427.422C197.945 427.815 197.611 428.091 196.992 428.091C196.44 428.091 195.93 427.824 195.662 427.514L195.336 427.966ZM199.341 426.477C199.341 427.74 200.202 428.601 201.398 428.601C202.059 428.601 202.602 428.384 203.004 427.982L202.702 427.573C202.385 427.899 201.916 428.083 201.456 428.083C200.587 428.083 200.051 427.447 200.001 426.686H203.271V426.527C203.271 425.315 202.552 424.361 201.331 424.361C200.177 424.361 199.341 425.306 199.341 426.477ZM201.323 424.88C202.243 424.88 202.644 425.624 202.652 426.226H200.001C200.035 425.607 200.461 424.88 201.323 424.88ZM207.214 428.501H207.841V422.923H207.214V425.072C206.888 424.629 206.394 424.361 205.851 424.361C204.789 424.361 204.053 425.198 204.053 426.486C204.053 427.799 204.797 428.601 205.851 428.601C206.419 428.601 206.913 428.309 207.214 427.899V428.501ZM207.214 427.405C206.988 427.757 206.503 428.041 206.001 428.041C205.19 428.041 204.705 427.38 204.705 426.486C204.705 425.591 205.19 424.922 206.001 424.922C206.503 424.922 206.988 425.223 207.214 425.574V427.405ZM213.018 428.601C214.247 428.601 215.016 427.648 215.016 426.477C215.016 425.306 214.247 424.361 213.018 424.361C211.788 424.361 211.019 425.306 211.019 426.477C211.019 427.648 211.788 428.601 213.018 428.601ZM213.018 428.041C212.156 428.041 211.671 427.305 211.671 426.477C211.671 425.658 212.156 424.922 213.018 424.922C213.879 424.922 214.356 425.658 214.356 426.477C214.356 427.305 213.879 428.041 213.018 428.041ZM218.765 428.501H219.392V425.666C219.392 424.788 218.949 424.361 218.104 424.361C217.502 424.361 216.95 424.713 216.666 425.047V424.462H216.039V428.501H216.666V425.549C216.9 425.223 217.368 424.922 217.862 424.922C218.405 424.922 218.765 425.148 218.765 425.858V428.501ZM222.675 429.513L222.575 430.082C222.692 430.115 222.901 430.14 223.035 430.14C223.57 430.132 223.98 429.906 224.222 429.321L226.246 424.462H225.561L224.222 427.773L222.876 424.462H222.199L223.888 428.543L223.62 429.153C223.478 429.488 223.294 429.58 223.018 429.58C222.918 429.58 222.767 429.555 222.675 429.513ZM228.665 428.601C229.894 428.601 230.664 427.648 230.664 426.477C230.664 425.306 229.894 424.361 228.665 424.361C227.436 424.361 226.666 425.306 226.666 426.477C226.666 427.648 227.436 428.601 228.665 428.601ZM228.665 428.041C227.804 428.041 227.319 427.305 227.319 426.477C227.319 425.658 227.804 424.922 228.665 424.922C229.526 424.922 230.003 425.658 230.003 426.477C230.003 427.305 229.526 428.041 228.665 428.041ZM234.412 428.501H235.04V424.462H234.412V427.431C234.178 427.757 233.71 428.041 233.217 428.041C232.673 428.041 232.313 427.832 232.313 427.121V424.462H231.686V427.313C231.686 428.192 232.129 428.601 232.974 428.601C233.576 428.601 234.103 428.284 234.412 427.932V428.501ZM236.292 428.501H236.919V425.641C237.103 425.315 237.63 424.997 238.015 424.997C238.115 424.997 238.19 425.005 238.266 425.022V424.378C237.714 424.378 237.246 424.688 236.919 425.114V424.462H236.292V428.501ZM242.229 428.601C242.597 428.601 242.822 428.493 242.981 428.342L242.797 427.874C242.714 427.966 242.547 428.041 242.371 428.041C242.095 428.041 241.961 427.824 241.961 427.523V425.014H242.781V424.462H241.961V423.358H241.334V424.462H240.665V425.014H241.334V427.656C241.334 428.258 241.635 428.601 242.229 428.601ZM246.192 428.501H246.819V425.725C246.819 424.746 246.109 424.361 245.256 424.361C244.595 424.361 244.076 424.579 243.642 425.03L243.934 425.465C244.294 425.081 244.687 424.905 245.172 424.905C245.757 424.905 246.192 425.214 246.192 425.758V426.486C245.866 426.109 245.406 425.934 244.854 425.934C244.168 425.934 243.441 426.36 243.441 427.263C243.441 428.141 244.168 428.601 244.854 428.601C245.398 428.601 245.858 428.409 246.192 428.041V428.501ZM246.192 427.648C245.95 427.982 245.523 428.15 245.08 428.15C244.495 428.15 244.085 427.782 244.085 427.272C244.085 426.753 244.495 426.385 245.08 426.385C245.523 426.385 245.95 426.552 246.192 426.887V427.648ZM247.725 427.966C248.135 428.401 248.696 428.601 249.356 428.601C250.401 428.601 250.945 428.058 250.945 427.38C250.945 426.486 250.134 426.285 249.431 426.126C248.905 426.001 248.445 425.875 248.445 425.482C248.445 425.122 248.787 424.872 249.339 424.872C249.858 424.872 250.301 425.089 250.544 425.382L250.836 424.947C250.51 424.621 250.025 424.361 249.339 424.361C248.378 424.361 247.834 424.897 247.834 425.524C247.834 426.36 248.612 426.544 249.298 426.703C249.841 426.837 250.335 426.979 250.335 427.422C250.335 427.815 250 428.091 249.381 428.091C248.829 428.091 248.319 427.824 248.052 427.514L247.725 427.966ZM252.984 428.601C253.352 428.601 253.578 428.493 253.737 428.342L253.553 427.874C253.469 427.966 253.302 428.041 253.126 428.041C252.85 428.041 252.717 427.824 252.717 427.523V425.014H253.536V424.462H252.717V423.358H252.089V424.462H251.42V425.014H252.089V427.656C252.089 428.258 252.39 428.601 252.984 428.601ZM254.188 426.477C254.188 427.74 255.049 428.601 256.245 428.601C256.906 428.601 257.449 428.384 257.851 427.982L257.55 427.573C257.232 427.899 256.764 428.083 256.304 428.083C255.434 428.083 254.899 427.447 254.849 426.686H258.118V426.527C258.118 425.315 257.399 424.361 256.178 424.361C255.024 424.361 254.188 425.306 254.188 426.477ZM256.17 424.88C257.09 424.88 257.491 425.624 257.5 426.226H254.849C254.882 425.607 255.309 424.88 256.17 424.88Z" fill="black" fill-opacity="0.5"></path>
      <rect class="uicolor1 uicustomcolor5 uihuecolor6" x="102.336" y="442.603" width="194.731" height="31.0613" rx="7.168" fill="#e1732a" opacity="1"></rect>
      <path d="M114.496 461.148C115.174 461.826 116.163 462.288 117.539 462.288C119.474 462.288 120.41 461.299 120.41 459.987C120.41 458.396 118.905 458.041 117.722 457.772C116.894 457.579 116.292 457.428 116.292 456.944C116.292 456.514 116.657 456.213 117.346 456.213C118.044 456.213 118.819 456.461 119.399 456.998L120.249 455.88C119.539 455.224 118.593 454.88 117.453 454.88C115.765 454.88 114.733 455.848 114.733 457.041C114.733 458.643 116.238 458.966 117.41 459.235C118.238 459.428 118.862 459.611 118.862 460.149C118.862 460.557 118.453 460.955 117.614 460.955C116.625 460.955 115.84 460.514 115.335 459.987L114.496 461.148ZM121.072 459.557C121.072 461.224 122.266 462.288 123.846 462.288C124.653 462.288 125.459 462.052 125.986 461.568L125.384 460.686C125.051 461.009 124.481 461.202 123.997 461.202C123.115 461.202 122.588 460.654 122.502 459.998H126.362V459.697C126.362 457.998 125.309 456.837 123.76 456.837C122.18 456.837 121.072 458.052 121.072 459.557ZM123.76 457.923C124.663 457.923 125.008 458.579 125.04 459.073H122.481C122.545 458.557 122.911 457.923 123.76 457.923ZM129.09 462.288C129.66 462.288 130.026 462.138 130.23 461.955L129.94 460.923C129.865 460.998 129.671 461.073 129.467 461.073C129.166 461.073 128.994 460.826 128.994 460.503V458.159H130.047V456.966H128.994V455.547H127.617V456.966H126.757V458.159H127.617V460.869C127.617 461.794 128.134 462.288 129.09 462.288ZM133.399 459.557C133.399 461.159 134.55 462.288 136.152 462.288C137.216 462.288 137.861 461.826 138.205 461.342L137.313 460.514C137.066 460.858 136.689 461.073 136.216 461.073C135.388 461.073 134.808 460.46 134.808 459.557C134.808 458.654 135.388 458.052 136.216 458.052C136.689 458.052 137.066 458.256 137.313 458.611L138.205 457.783C137.861 457.299 137.216 456.837 136.152 456.837C134.55 456.837 133.399 457.966 133.399 459.557ZM142.603 462.159H143.969V456.966H142.603V460.482C142.367 460.783 141.947 461.073 141.421 461.073C140.84 461.073 140.464 460.837 140.464 460.116V456.966H139.098V460.654C139.098 461.665 139.636 462.288 140.775 462.288C141.625 462.288 142.248 461.901 142.603 461.503V462.159ZM145.325 462.159H146.69V458.729C146.916 458.396 147.518 458.149 147.97 458.149C148.12 458.149 148.249 458.159 148.346 458.181V456.848C147.701 456.848 147.056 457.213 146.69 457.676V456.966H145.325V462.159ZM149.199 462.159H150.565V458.729C150.79 458.396 151.393 458.149 151.844 458.149C151.995 458.149 152.124 458.159 152.22 458.181V456.848C151.575 456.848 150.93 457.213 150.565 457.676V456.966H149.199V462.159ZM152.74 459.557C152.74 461.224 153.934 462.288 155.514 462.288C156.321 462.288 157.127 462.052 157.654 461.568L157.052 460.686C156.719 461.009 156.149 461.202 155.665 461.202C154.783 461.202 154.256 460.654 154.17 459.998H158.03V459.697C158.03 457.998 156.977 456.837 155.428 456.837C153.848 456.837 152.74 458.052 152.74 459.557ZM155.428 457.923C156.331 457.923 156.676 458.579 156.708 459.073H154.149C154.213 458.557 154.579 457.923 155.428 457.923ZM162.522 462.159H163.887V458.493C163.887 457.482 163.339 456.837 162.199 456.837C161.35 456.837 160.715 457.246 160.382 457.643V456.966H159.017V462.159H160.382V458.665C160.608 458.353 161.027 458.052 161.565 458.052C162.145 458.052 162.522 458.299 162.522 459.02V462.159ZM166.985 462.288C167.555 462.288 167.92 462.138 168.125 461.955L167.834 460.923C167.759 460.998 167.566 461.073 167.361 461.073C167.06 461.073 166.888 460.826 166.888 460.503V458.159H167.942V456.966H166.888V455.547H165.512V456.966H164.652V458.159H165.512V460.869C165.512 461.794 166.028 462.288 166.985 462.288ZM171.627 462.159H172.993V454.988H171.627V462.159ZM176.755 462.288C178.475 462.288 179.508 461.041 179.508 459.557C179.508 458.084 178.475 456.837 176.755 456.837C175.046 456.837 174.013 458.084 174.013 459.557C174.013 461.041 175.046 462.288 176.755 462.288ZM176.755 461.073C175.906 461.073 175.433 460.374 175.433 459.557C175.433 458.751 175.906 458.052 176.755 458.052C177.604 458.052 178.088 458.751 178.088 459.557C178.088 460.374 177.604 461.073 176.755 461.073ZM180.187 459.557C180.187 461.159 181.338 462.288 182.94 462.288C184.004 462.288 184.649 461.826 184.993 461.342L184.101 460.514C183.854 460.858 183.477 461.073 183.004 461.073C182.176 461.073 181.596 460.46 181.596 459.557C181.596 458.654 182.176 458.052 183.004 458.052C183.477 458.052 183.854 458.256 184.101 458.611L184.993 457.783C184.649 457.299 184.004 456.837 182.94 456.837C181.338 456.837 180.187 457.966 180.187 459.557ZM189.004 462.159H190.37V458.805C190.37 457.31 189.284 456.837 188.101 456.837C187.284 456.837 186.467 457.095 185.832 457.654L186.348 458.568C186.789 458.159 187.305 457.955 187.864 457.955C188.553 457.955 189.004 458.299 189.004 458.826V459.546C188.66 459.127 188.047 458.912 187.359 458.912C186.531 458.912 185.553 459.353 185.553 460.568C185.553 461.729 186.531 462.288 187.359 462.288C188.037 462.288 188.649 462.041 189.004 461.622V462.159ZM189.004 460.912C188.778 461.213 188.348 461.364 187.908 461.364C187.37 461.364 186.929 461.084 186.929 460.6C186.929 460.106 187.37 459.815 187.908 459.815C188.348 459.815 188.778 459.966 189.004 460.267V460.912ZM193.466 462.288C194.036 462.288 194.401 462.138 194.606 461.955L194.315 460.923C194.24 460.998 194.047 461.073 193.842 461.073C193.541 461.073 193.369 460.826 193.369 460.503V458.159H194.423V456.966H193.369V455.547H191.993V456.966H191.133V458.159H191.993V460.869C191.993 461.794 192.509 462.288 193.466 462.288ZM196.035 456.203C196.486 456.203 196.852 455.837 196.852 455.385C196.852 454.934 196.486 454.568 196.035 454.568C195.594 454.568 195.217 454.934 195.217 455.385C195.217 455.837 195.594 456.203 196.035 456.203ZM195.357 462.159H196.723V456.966H195.357V462.159ZM200.485 462.288C202.205 462.288 203.238 461.041 203.238 459.557C203.238 458.084 202.205 456.837 200.485 456.837C198.776 456.837 197.743 458.084 197.743 459.557C197.743 461.041 198.776 462.288 200.485 462.288ZM200.485 461.073C199.636 461.073 199.163 460.374 199.163 459.557C199.163 458.751 199.636 458.052 200.485 458.052C201.334 458.052 201.818 458.751 201.818 459.557C201.818 460.374 201.334 461.073 200.485 461.073ZM207.756 462.159H209.121V458.493C209.121 457.482 208.573 456.837 207.433 456.837C206.584 456.837 205.949 457.246 205.616 457.643V456.966H204.251V462.159H205.616V458.665C205.842 458.353 206.261 458.052 206.799 458.052C207.379 458.052 207.756 458.299 207.756 459.02V462.159Z" fill="white" fill-opacity="0.9"></path>
      <path d="M271.978 458.134H284.721M280.34 453.355L285.119 458.134L280.34 462.913" stroke="white" stroke-width="1.792"></path>
      <path class="uicolor1 uicustomcolor1 uihuecolor4" d="M287.49 414.211C288.2 413.732 288.666 412.92 288.666 412C288.666 410.527 287.472 409.333 285.999 409.333C284.527 409.333 283.333 410.527 283.333 412C283.333 412.92 283.799 413.732 284.508 414.211C282.288 414.856 280.666 416.905 280.666 419.333H291.333C291.333 416.905 289.71 414.856 287.49 414.211Z" fill="#e1732a" opacity="1"></path>
      </g>
      </g>
      </g>
      <defs>
      <filter id="filter0_d" x="61.3333" y="13.3333" width="290.667" height="514.667" filterUnits="userSpaceOnUse" color-interpolation-filters="sRGB">
      <feFlood flood-opacity="0" result="BackgroundImageFix"></feFlood>
      <feColorMatrix in="SourceAlpha" type="matrix" values="0 0 0 0 0 0 0 0 0 0 0 0 0 0 0 0 0 0 127 0"></feColorMatrix>
      <feOffset dx="6.66667" dy="6.66667"></feOffset>
      <feGaussianBlur stdDeviation="16.6667"></feGaussianBlur>
      <feColorMatrix type="matrix" values="0 0 0 0 0 0 0 0 0 0 0 0 0 0 0 0 0 0 0.1 0"></feColorMatrix>
      <feBlend mode="normal" in2="BackgroundImageFix" result="effect1_dropShadow"></feBlend>
      <feBlend mode="normal" in="SourceGraphic" in2="effect1_dropShadow" result="shape"></feBlend>
      </filter>
      <filter id="filter1_d" x="73.0667" y="374.506" width="253.867" height="127.829" filterUnits="userSpaceOnUse" color-interpolation-filters="sRGB">
      <feFlood flood-opacity="0" result="BackgroundImageFix"></feFlood>
      <feColorMatrix in="SourceAlpha" type="matrix" values="0 0 0 0 0 0 0 0 0 0 0 0 0 0 0 0 0 0 127 0"></feColorMatrix>
      <feOffset dy="-0.597333"></feOffset>
      <feGaussianBlur stdDeviation="7.46667"></feGaussianBlur>
      <feColorMatrix type="matrix" values="0 0 0 0 0 0 0 0 0 0 0 0 0 0 0 0 0 0 0.05 0"></feColorMatrix>
      <feBlend mode="normal" in2="BackgroundImageFix" result="effect1_dropShadow"></feBlend>
      <feBlend mode="normal" in="SourceGraphic" in2="effect1_dropShadow" result="shape"></feBlend>
      </filter>
      <clipPath id="clip0">
      <rect width="400" height="528" fill="white"></rect>
      </clipPath>
      <clipPath id="clip1">
      <rect x="88" y="40" width="224" height="448" rx="19.1147" fill="white"></rect>
      </clipPath>
      </defs>
    </svg>